<svg xmlns="http://www.w3.org/2000/svg" viewBox="0 0 64 64">
  <rect width="64" height="64" rx="14" fill="#16624f"/>
  <g fill="none" stroke="#fff" stroke-linecap="round" stroke-linejoin="round">
    <circle cx="25" cy="20" r="7" stroke-width="3.5"/>
    <path d="M15.5 39c1.1-7.1 4.8-10.6 9.5-10.6S33.4 31.9 34.5 39" stroke-width="3.5"/>
    <path d="M21.5 20h.01M28.5 20h.01" stroke-width="3.2"/>
    <path d="M22.2 23.7c1.8 1.3 3.8 1.3 5.6 0" stroke-width="2.7"/>
    <path d="M42 36.5c0-4.2 2.7-7 6-7s6 2.8 6 7" stroke-width="3.2"/>
    <path d="M48 26.8v2.4M40 37h16" stroke-width="3.2"/>
    <path d="M10 39.5h44v6H10z" stroke-width="3.5"/>
    <path d="M15 46v8M49 46v8" stroke-width="3.5"/>
  </g>
</svg>
